<svg width="25.000000" height="11.000000" viewBox="0 0 25 11" fill="none" xmlns="http://www.w3.org/2000/svg" xmlns:xlink="http://www.w3.org/1999/xlink">
	<desc>
			Created with Pixso.
	</desc>
	<defs>
		<clipPath id="clip16096_3356">
			<rect id="arrow" width="25.000000" height="11.000000" fill="white" fill-opacity="0"/>
		</clipPath>
	</defs>
	<g clip-path="url(#clip16096_3356)">
		<path id="Vector" d="M0.56 10.24C1.03 9.47 1.51 8.73 1.96 7.97C2.42 7.22 2.87 6.48 3.33 5.72C3.34 5.71 3.35 5.69 3.36 5.68C3.64 5.26 3.63 5.4 3.36 4.98C2.47 3.59 1.57 2.2 0.68 0.81C0.64 0.75 0.6 0.68 0.56 0.61C0.97 0.61 1.37 0.62 1.75 0.62C3.61 0.62 5.45 0.63 7.31 0.62C8.31 0.62 9.17 0.97 9.92 1.61C10.26 1.9 10.53 2.31 10.81 2.66C11.15 3.1 11.49 3.51 11.82 3.97C11.9 4.06 11.98 4.1 12.1 4.11C13.75 4.19 15.39 4.28 17.02 4.35C19.4 4.47 21.79 4.59 24.17 4.72C24.62 4.74 24.94 5.06 24.92 5.47C24.92 5.89 24.61 6.2 24.17 6.23C22.23 6.34 20.31 6.47 18.38 6.59C16.31 6.72 14.26 6.85 12.19 6.98C11.9 6.98 11.71 7.1 11.56 7.31C11.16 7.83 10.76 8.36 10.36 8.85C9.58 9.79 8.59 10.28 7.36 10.29C5.69 10.3 4.04 10.3 2.36 10.29C1.81 10.29 1.27 10.29 0.72 10.29C0.67 10.28 0.62 10.28 0.56 10.24Z" fill="#FFA239" fill-opacity="1.000000" fill-rule="evenodd"/>
	</g>
</svg>
